<mxfile host="app.diagrams.net" modified="2020-10-08T06:23:31.737Z" agent="5.0 (Windows)" etag="MNC8EQb6o-44k11_Ukr8" version="13.7.7" type="github">
  <diagram id="6Ehz5MfZboytCfgk9tv6" name="Page-1">
    <mxGraphModel dx="910" dy="487" grid="1" gridSize="10" guides="1" tooltips="1" connect="1" arrows="1" fold="1" page="1" pageScale="1" pageWidth="1169" pageHeight="827" math="0" shadow="0">
      <root>
        <mxCell id="0" />
        <mxCell id="1" parent="0" />
        <mxCell id="peqGWXsckzBnaxJtXZJ2-1" value="Public Communications -&amp;nbsp; Media Interview Request" style="swimlane;html=1;childLayout=stackLayout;resizeParent=1;resizeParentMax=0;horizontal=1;startSize=20;horizontalStack=0;" parent="1" vertex="1">
          <mxGeometry x="10" y="20" width="1140" height="630" as="geometry" />
        </mxCell>
        <mxCell id="peqGWXsckzBnaxJtXZJ2-11" value="" style="edgeStyle=orthogonalEdgeStyle;rounded=0;orthogonalLoop=1;jettySize=auto;html=1;" parent="peqGWXsckzBnaxJtXZJ2-1" source="peqGWXsckzBnaxJtXZJ2-9" target="peqGWXsckzBnaxJtXZJ2-10" edge="1">
          <mxGeometry relative="1" as="geometry" />
        </mxCell>
        <mxCell id="peqGWXsckzBnaxJtXZJ2-16" value="" style="edgeStyle=orthogonalEdgeStyle;rounded=0;orthogonalLoop=1;jettySize=auto;html=1;" parent="peqGWXsckzBnaxJtXZJ2-1" source="peqGWXsckzBnaxJtXZJ2-12" target="peqGWXsckzBnaxJtXZJ2-15" edge="1">
          <mxGeometry relative="1" as="geometry" />
        </mxCell>
        <mxCell id="peqGWXsckzBnaxJtXZJ2-2" value="Staff" style="swimlane;html=1;startSize=20;horizontal=0;" parent="peqGWXsckzBnaxJtXZJ2-1" vertex="1">
          <mxGeometry y="20" width="1140" height="190" as="geometry" />
        </mxCell>
        <mxCell id="peqGWXsckzBnaxJtXZJ2-6" value="Start" style="rounded=1;whiteSpace=wrap;html=1;" parent="peqGWXsckzBnaxJtXZJ2-2" vertex="1">
          <mxGeometry x="145" y="10" width="110" height="50" as="geometry" />
        </mxCell>
        <mxCell id="peqGWXsckzBnaxJtXZJ2-8" value="" style="edgeStyle=orthogonalEdgeStyle;rounded=0;orthogonalLoop=1;jettySize=auto;html=1;entryX=0.5;entryY=0;entryDx=0;entryDy=0;" parent="peqGWXsckzBnaxJtXZJ2-2" source="peqGWXsckzBnaxJtXZJ2-6" target="peqGWXsckzBnaxJtXZJ2-9" edge="1">
          <mxGeometry relative="1" as="geometry">
            <mxPoint x="200" y="115" as="targetPoint" />
          </mxGeometry>
        </mxCell>
        <mxCell id="peqGWXsckzBnaxJtXZJ2-9" value="Request for media brief coverage" style="rounded=0;whiteSpace=wrap;html=1;" parent="peqGWXsckzBnaxJtXZJ2-2" vertex="1">
          <mxGeometry x="140" y="113" width="120" height="60" as="geometry" />
        </mxCell>
        <mxCell id="peqGWXsckzBnaxJtXZJ2-3" value="Clerk" style="swimlane;html=1;startSize=20;horizontal=0;" parent="peqGWXsckzBnaxJtXZJ2-1" vertex="1">
          <mxGeometry y="210" width="1140" height="200" as="geometry" />
        </mxCell>
        <mxCell id="peqGWXsckzBnaxJtXZJ2-21" value="no" style="text;html=1;strokeColor=none;fillColor=none;align=center;verticalAlign=middle;whiteSpace=wrap;rounded=0;" parent="peqGWXsckzBnaxJtXZJ2-3" vertex="1">
          <mxGeometry x="245" y="40" width="40" height="20" as="geometry" />
        </mxCell>
        <mxCell id="peqGWXsckzBnaxJtXZJ2-10" value="Request approved?" style="rhombus;whiteSpace=wrap;html=1;rounded=0;" parent="peqGWXsckzBnaxJtXZJ2-3" vertex="1">
          <mxGeometry x="160" y="20.5" width="80" height="80" as="geometry" />
        </mxCell>
        <mxCell id="peqGWXsckzBnaxJtXZJ2-13" value="" style="edgeStyle=orthogonalEdgeStyle;rounded=0;orthogonalLoop=1;jettySize=auto;html=1;" parent="peqGWXsckzBnaxJtXZJ2-3" source="peqGWXsckzBnaxJtXZJ2-10" target="peqGWXsckzBnaxJtXZJ2-12" edge="1">
          <mxGeometry relative="1" as="geometry" />
        </mxCell>
        <mxCell id="peqGWXsckzBnaxJtXZJ2-14" value="yes" style="text;html=1;strokeColor=none;fillColor=none;align=center;verticalAlign=middle;whiteSpace=wrap;rounded=0;" parent="peqGWXsckzBnaxJtXZJ2-3" vertex="1">
          <mxGeometry x="193" y="101.5" width="40" height="20" as="geometry" />
        </mxCell>
        <mxCell id="peqGWXsckzBnaxJtXZJ2-12" value="Forward to the Public Communications Officer" style="whiteSpace=wrap;html=1;rounded=0;" parent="peqGWXsckzBnaxJtXZJ2-3" vertex="1">
          <mxGeometry x="140" y="140" width="120" height="50" as="geometry" />
        </mxCell>
        <mxCell id="peqGWXsckzBnaxJtXZJ2-4" value="Public Communications Officer" style="swimlane;html=1;startSize=20;horizontal=0;" parent="peqGWXsckzBnaxJtXZJ2-1" vertex="1">
          <mxGeometry y="410" width="1140" height="220" as="geometry" />
        </mxCell>
        <mxCell id="peqGWXsckzBnaxJtXZJ2-31" value="" style="edgeStyle=orthogonalEdgeStyle;rounded=0;orthogonalLoop=1;jettySize=auto;html=1;" parent="peqGWXsckzBnaxJtXZJ2-4" source="peqGWXsckzBnaxJtXZJ2-28" target="peqGWXsckzBnaxJtXZJ2-30" edge="1">
          <mxGeometry relative="1" as="geometry" />
        </mxCell>
        <mxCell id="peqGWXsckzBnaxJtXZJ2-33" value="" style="edgeStyle=orthogonalEdgeStyle;rounded=0;orthogonalLoop=1;jettySize=auto;html=1;entryX=0;entryY=0.5;entryDx=0;entryDy=0;" parent="peqGWXsckzBnaxJtXZJ2-4" source="peqGWXsckzBnaxJtXZJ2-30" target="peqGWXsckzBnaxJtXZJ2-34" edge="1">
          <mxGeometry relative="1" as="geometry">
            <mxPoint x="1003" y="90" as="targetPoint" />
          </mxGeometry>
        </mxCell>
        <mxCell id="peqGWXsckzBnaxJtXZJ2-28" value="Arrange for the press conference coverage" style="whiteSpace=wrap;html=1;rounded=0;" parent="peqGWXsckzBnaxJtXZJ2-4" vertex="1">
          <mxGeometry x="623" y="60" width="120" height="60" as="geometry" />
        </mxCell>
        <mxCell id="peqGWXsckzBnaxJtXZJ2-30" value="Track media coverage reports" style="whiteSpace=wrap;html=1;rounded=0;" parent="peqGWXsckzBnaxJtXZJ2-4" vertex="1">
          <mxGeometry x="803" y="60" width="120" height="60" as="geometry" />
        </mxCell>
        <mxCell id="peqGWXsckzBnaxJtXZJ2-34" value="End" style="rounded=1;whiteSpace=wrap;html=1;" parent="peqGWXsckzBnaxJtXZJ2-4" vertex="1">
          <mxGeometry x="993" y="65" width="70" height="50" as="geometry" />
        </mxCell>
        <mxCell id="peqGWXsckzBnaxJtXZJ2-15" value="Inform the Media" style="whiteSpace=wrap;html=1;rounded=0;" parent="peqGWXsckzBnaxJtXZJ2-4" vertex="1">
          <mxGeometry x="140" y="60" width="120" height="60" as="geometry" />
        </mxCell>
        <mxCell id="peqGWXsckzBnaxJtXZJ2-20" value="" style="edgeStyle=orthogonalEdgeStyle;rounded=0;orthogonalLoop=1;jettySize=auto;html=1;entryX=1;entryY=0.5;entryDx=0;entryDy=0;" parent="1" source="peqGWXsckzBnaxJtXZJ2-17" target="peqGWXsckzBnaxJtXZJ2-9" edge="1">
          <mxGeometry relative="1" as="geometry">
            <mxPoint x="370" y="170.5" as="targetPoint" />
            <Array as="points">
              <mxPoint x="370" y="183" />
            </Array>
          </mxGeometry>
        </mxCell>
        <mxCell id="peqGWXsckzBnaxJtXZJ2-17" value="Note to requester" style="shape=document;whiteSpace=wrap;html=1;boundedLbl=1;rounded=0;" parent="1" vertex="1">
          <mxGeometry x="310" y="250.5" width="120" height="80" as="geometry" />
        </mxCell>
        <mxCell id="peqGWXsckzBnaxJtXZJ2-18" value="" style="edgeStyle=orthogonalEdgeStyle;rounded=0;orthogonalLoop=1;jettySize=auto;html=1;" parent="1" source="peqGWXsckzBnaxJtXZJ2-10" target="peqGWXsckzBnaxJtXZJ2-17" edge="1">
          <mxGeometry relative="1" as="geometry" />
        </mxCell>
        <mxCell id="2l9LT_-NHEH49sOw_vyw-1" value="Notify the Sergeant-At-Arms of the media coverage details including the expected news reporters" style="rounded=0;whiteSpace=wrap;html=1;" vertex="1" parent="1">
          <mxGeometry x="333" y="470" width="140" height="100" as="geometry" />
        </mxCell>
        <mxCell id="peqGWXsckzBnaxJtXZJ2-23" value="" style="edgeStyle=orthogonalEdgeStyle;rounded=0;orthogonalLoop=1;jettySize=auto;html=1;" parent="1" source="peqGWXsckzBnaxJtXZJ2-15" target="2l9LT_-NHEH49sOw_vyw-1" edge="1">
          <mxGeometry relative="1" as="geometry">
            <mxPoint x="393" y="520" as="targetPoint" />
          </mxGeometry>
        </mxCell>
        <mxCell id="peqGWXsckzBnaxJtXZJ2-29" value="" style="edgeStyle=orthogonalEdgeStyle;rounded=0;orthogonalLoop=1;jettySize=auto;html=1;exitX=1;exitY=0.5;exitDx=0;exitDy=0;" parent="1" source="2l9LT_-NHEH49sOw_vyw-1" target="peqGWXsckzBnaxJtXZJ2-28" edge="1">
          <mxGeometry relative="1" as="geometry">
            <mxPoint x="763" y="505" as="sourcePoint" />
          </mxGeometry>
        </mxCell>
      </root>
    </mxGraphModel>
  </diagram>
</mxfile>
